<svg viewBox="0 0 100 80" fill="none" xmlns="http://www.w3.org/2000/svg"><rect x="10" y="68" width="80" height="4" rx="2" fill="#e5e7eb"/><rect x="30" y="25" width="40" height="43" rx="2" fill="#e8dcd0"/><polygon points="27,25 50,10 73,25" fill="#be9b7b"/><rect x="45" y="45" width="10" height="23" rx="1" fill="#8b7355"/><rect x="35" y="45" width="8" height="10" rx="1" fill="#c9b99a"/><rect x="57" y="45" width="8" height="10" rx="1" fill="#c9b99a"/><path d="M43 35 L57 35 L57 43 L43 43 Z" fill="#dbeafe" stroke="#3b82f6" stroke-width="1.5"/><path d="M40 43 L60 43 L60 48 L40 48 Z" fill="#93c5fd" stroke="#3b82f6" stroke-width="1.5"/><line x1="42" y1="43" x2="42" y2="48" stroke="#3b82f6" stroke-width="1"/><line x1="46" y1="43" x2="46" y2="48" stroke="#3b82f6" stroke-width="1"/><line x1="50" y1="43" x2="50" y2="48" stroke="#3b82f6" stroke-width="1"/><line x1="54" y1="43" x2="54" y2="48" stroke="#3b82f6" stroke-width="1"/><line x1="58" y1="43" x2="58" y2="48" stroke="#3b82f6" stroke-width="1"/></svg>