<svg viewBox="0 0 100 80" fill="none" xmlns="http://www.w3.org/2000/svg">
  <!-- Ground -->
  <rect x="10" y="68" width="80" height="4" rx="2" fill="#e5e7eb"/>
  <!-- House -->
  <rect x="20" y="30" width="50" height="38" rx="2" fill="#e8dcd0"/>
  <polygon points="17,30 45,10 73,30" fill="#be9b7b"/>
  <!-- Windows (one converting to door) -->
  <rect x="28" y="38" width="10" height="10" rx="1" fill="#c9b99a"/>
  <rect x="52" y="38" width="10" height="10" rx="1" fill="#c9b99a"/>
  <!-- Door area showing conversion -->
  <rect x="37" y="45" width="16" height="23" rx="1" fill="#8b7355"/>
  <!-- Circular arrows (conversion symbol) -->
  <circle cx="78" cy="22" r="10" fill="#f0fdf4" stroke="#22c55e" stroke-width="1.5"/>
  <path d="M73 20a6 6 0 0 1 10 0" stroke="#22c55e" stroke-width="1.5" stroke-linecap="round"/>
  <path d="M83 24a6 6 0 0 1-10 0" stroke="#22c55e" stroke-width="1.5" stroke-linecap="round"/>
  <path d="M82 18l1 2 2-1" stroke="#22c55e" stroke-width="1" stroke-linecap="round" stroke-linejoin="round"/>
  <path d="M74 26l-1-2-2 1" stroke="#22c55e" stroke-width="1" stroke-linecap="round" stroke-linejoin="round"/>
</svg>
