<svg viewBox="0 0 100 80" fill="none" xmlns="http://www.w3.org/2000/svg">
  <!-- Ground/rubble -->
  <rect x="10" y="68" width="80" height="4" rx="2" fill="#e5e7eb"/>
  <rect x="18" y="65" width="8" height="5" rx="1" fill="#d1d5db" transform="rotate(-8 18 65)"/>
  <rect x="40" y="64" width="10" height="6" rx="1" fill="#d1d5db" transform="rotate(5 40 64)"/>
  <rect x="62" y="66" width="7" height="4" rx="1" fill="#d1d5db" transform="rotate(-3 62 66)"/>
  <!-- Partially demolished house -->
  <rect x="20" y="35" width="40" height="33" rx="2" fill="#e8dcd0" opacity="0.7"/>
  <polygon points="18,35 40,15 62,35" fill="#be9b7b" opacity="0.7"/>
  <!-- Broken wall sections -->
  <path d="M60 35v-2l3 1v-3l2 2v-5" stroke="#d1d5db" stroke-width="2" stroke-linecap="round"/>
  <rect x="28" y="42" width="10" height="10" rx="1" fill="#c9b99a" opacity="0.7"/>
  <!-- Wrecking ball -->
  <line x1="78" y1="8" x2="72" y2="30" stroke="#64748b" stroke-width="1.5"/>
  <circle cx="72" cy="35" r="8" fill="#64748b"/>
  <circle cx="72" cy="35" r="6" fill="#475569"/>
  <!-- Warning stripes -->
  <rect x="70" y="60" width="18" height="8" rx="2" fill="#fbbf24"/>
  <path d="M72 60l3 8M76 60l3 8M80 60l3 8M84 60l3 8" stroke="#000" stroke-width="1" opacity="0.3"/>
</svg>
