<svg viewBox="0 0 100 80" fill="none" xmlns="http://www.w3.org/2000/svg">
  <!-- Ground -->
  <rect x="5" y="68" width="90" height="4" rx="2" fill="#e5e7eb"/>
  <!-- Main house -->
  <rect x="15" y="30" width="40" height="38" rx="2" fill="#e8dcd0"/>
  <polygon points="12,30 35,12 58,30" fill="#be9b7b"/>
  <rect x="22" y="38" width="10" height="10" rx="1" fill="#c9b99a"/>
  <rect x="38" y="38" width="10" height="10" rx="1" fill="#c9b99a"/>
  <rect x="30" y="53" width="10" height="15" rx="1" fill="#8b7355"/>
  <!-- Extension (added portion with dashed line) -->
  <rect x="55" y="40" width="30" height="28" rx="2" fill="#bfdbfe" stroke="#3b82f6" stroke-width="1.5"/>
  <rect x="58" y="33" width="24" height="8" rx="1" fill="#93c5fd" stroke="#3b82f6" stroke-width="1"/>
  <rect x="62" y="48" width="8" height="8" rx="1" fill="#dbeafe"/>
  <rect x="74" y="48" width="8" height="8" rx="1" fill="#dbeafe"/>
  <!-- Plus indicator -->
  <circle cx="85" cy="22" r="7" fill="#0d7490"/>
  <path d="M82 22h6M85 19v6" stroke="white" stroke-width="1.5" stroke-linecap="round"/>
</svg>
