<svg viewBox="0 0 100 80" fill="none" xmlns="http://www.w3.org/2000/svg"><rect x="10" y="68" width="80" height="4" rx="2" fill="#e5e7eb"/><rect x="30" y="20" width="40" height="48" rx="2" fill="#e8dcd0"/><polygon points="25,20 50,8 75,20" fill="#be9b7b"/><rect x="38" y="30" width="8" height="10" rx="1" fill="#c9b99a"/><rect x="54" y="30" width="8" height="10" rx="1" fill="#c9b99a"/><rect x="38" y="45" width="8" height="10" rx="1" fill="#c9b99a"/><rect x="54" y="45" width="8" height="10" rx="1" fill="#c9b99a"/><circle cx="30" cy="55" r="5" fill="#3b82f6"/><path d="M25 68 V62 C25 60 27 58 30 58 C33 58 35 60 35 62 V68" fill="#3b82f6"/><circle cx="70" cy="55" r="5" fill="#22c55e"/><path d="M65 68 V62 C65 60 67 58 70 58 C73 58 75 60 75 62 V68" fill="#22c55e"/><circle cx="50" cy="55" r="5" fill="#f59e0b"/><path d="M45 68 V62 C45 60 47 58 50 58 C53 58 55 60 55 62 V68" fill="#f59e0b"/></svg>