<svg viewBox="0 0 100 80" fill="none" xmlns="http://www.w3.org/2000/svg"><rect x="10" y="68" width="80" height="4" rx="2" fill="#d1d5db"/><path d="M20 68 L20 40 L35 40 L35 30 L50 30 L50 68" fill="#9ca3af"/><path d="M50 68 L50 45 L65 45 L65 35 L80 35 L80 68" fill="#6b7280"/><rect x="25" y="20" width="4" height="10" fill="#4b5563"/><rect x="42" y="15" width="4" height="15" fill="#4b5563"/><rect x="70" y="25" width="4" height="10" fill="#4b5563"/><circle cx="27" cy="15" r="5" fill="#cbd5e1" opacity="0.7"/><circle cx="44" cy="8" r="6" fill="#cbd5e1" opacity="0.7"/><circle cx="72" cy="18" r="4" fill="#cbd5e1" opacity="0.7"/><circle cx="50" cy="55" r="12" fill="#fef08a" stroke="#eab308" stroke-width="1.5"/><path d="M50 48 A 7 7 0 0 1 56 52 L 50 55 Z" fill="#ca8a04"/><path d="M56 58 A 7 7 0 0 1 44 58 L 50 55 Z" fill="#ca8a04"/><path d="M44 52 A 7 7 0 0 1 50 48 L 50 55 Z" fill="#ca8a04"/><circle cx="50" cy="55" r="2" fill="#fef08a"/></svg>