<svg viewBox="0 0 100 80" fill="none" xmlns="http://www.w3.org/2000/svg"><rect x="10" y="68" width="80" height="4" rx="2" fill="#e5e7eb"/><rect x="25" y="15" width="50" height="53" rx="2" fill="#fbbf24" opacity="0.1"/><polygon points="22,15 50,5 78,15" fill="#f59e0b" opacity="0.2"/><rect x="32" y="25" width="10" height="10" rx="1" fill="#60a5fa" stroke="#3b82f6" stroke-width="1.5"/><rect x="45" y="25" width="10" height="10" rx="1" fill="#60a5fa" stroke="#3b82f6" stroke-width="1.5"/><rect x="58" y="25" width="10" height="10" rx="1" fill="#60a5fa" stroke="#3b82f6" stroke-width="1.5"/><rect x="32" y="40" width="10" height="10" rx="1" fill="#60a5fa" stroke="#3b82f6" stroke-width="1.5"/><rect x="45" y="40" width="10" height="10" rx="1" fill="#60a5fa" stroke="#3b82f6" stroke-width="1.5"/><rect x="58" y="40" width="10" height="10" rx="1" fill="#60a5fa" stroke="#3b82f6" stroke-width="1.5"/><rect x="32" y="55" width="10" height="13" rx="1" fill="#8b7355"/><rect x="45" y="55" width="10" height="13" rx="1" fill="#8b7355"/><rect x="58" y="55" width="10" height="13" rx="1" fill="#8b7355"/></svg>