<svg viewBox="0 0 100 80" fill="none" xmlns="http://www.w3.org/2000/svg"><rect x="30" y="25" width="40" height="35" rx="2" fill="#e8dcd0"/><polygon points="25,25 50,12 75,25" fill="#be9b7b"/><rect x="38" y="35" width="8" height="10" rx="1" fill="#c9b99a"/><rect x="54" y="35" width="8" height="10" rx="1" fill="#c9b99a"/><path d="M0 60 Q 12 50, 25 60 T 50 60 T 75 60 T 100 60 L 100 80 L 0 80 Z" fill="#93c5fd" opacity="0.8"/><path d="M0 65 Q 15 55, 30 65 T 60 65 T 90 65 T 100 60 L 100 80 L 0 80 Z" fill="#60a5fa" opacity="0.8"/><path d="M0 70 Q 20 60, 40 70 T 80 70 T 100 65 L 100 80 L 0 80 Z" fill="#3b82f6" opacity="0.8"/></svg>